<?xml version="1.0" encoding="UTF-8" standalone="no"?>
<!DOCTYPE svg PUBLIC "-//W3C//DTD SVG 1.1//EN" "http://www.w3.org/Graphics/SVG/1.1/DTD/svg11.dtd">
<!-- Created with Vectornator (http://vectornator.io/) -->
<svg height="100%" stroke-miterlimit="10" style="fill-rule:nonzero;clip-rule:evenodd;stroke-linecap:round;stroke-linejoin:round;" version="1.1" viewBox="0 0 800 800" width="100%" xml:space="preserve" xmlns="http://www.w3.org/2000/svg" xmlns:vectornator="http://vectornator.io" xmlns:xlink="http://www.w3.org/1999/xlink">
<defs>
<linearGradient gradientTransform="matrix(0.833333 0 0 0.833333 66.6667 66.6667)" gradientUnits="userSpaceOnUse" id="LinearGradient" x1="100" x2="700" y1="400" y2="400">
<stop offset="0" stop-color="#fdb913"/>
<stop offset="0.477083" stop-color="#006a44"/>
<stop offset="1" stop-color="#c1272d"/>
</linearGradient>
<linearGradient gradientTransform="matrix(0.583333 0 0 0.583333 166.667 166.667)" gradientUnits="userSpaceOnUse" id="LinearGradient_2" x1="100" x2="700" y1="400" y2="400">
<stop offset="0" stop-color="#fdb913"/>
<stop offset="0.477083" stop-color="#006a44"/>
<stop offset="1" stop-color="#c1272d"/>
</linearGradient>
<linearGradient gradientTransform="matrix(0.333333 0 0 0.314584 266.667 274.166)" gradientUnits="userSpaceOnUse" id="LinearGradient_3" x1="100" x2="700" y1="400" y2="400">
<stop offset="0" stop-color="#fdb913"/>
<stop offset="0.477083" stop-color="#006a44"/>
<stop offset="1" stop-color="#c1272d"/>
</linearGradient>
</defs>
<g id="Layer-1" vectornator:layerName="Layer 1">
<path d="M170 108.333C158.954 108.333 150 117.288 150 128.333L150 400L150 491.675C150 602.131 261.924 691.667 400 691.667C538.076 691.667 650 602.131 650 491.675L650 400L650 214.109L650 128.333C650 117.288 641.046 108.333 630 108.333L400 108.333L170 108.333Z" fill="url(#LinearGradient)" fill-rule="nonzero" opacity="1" stroke="#000000" stroke-linecap="butt" stroke-linejoin="round" stroke-width="18" vectornator:layerName="Curve 1"/>
<path d="M245 195.833C233.954 195.833 225 204.788 225 215.833L225 400L225 464.173C225 541.492 303.347 604.167 400 604.167C496.653 604.167 575 541.492 575 464.173L575 400L575 269.877L575 215.833C575 204.788 566.046 195.833 555 195.833L400 195.833L245 195.833Z" fill="url(#LinearGradient_2)" fill-rule="nonzero" opacity="1" stroke="#000000" stroke-linecap="butt" stroke-linejoin="round" stroke-width="18" vectornator:layerName="Curve 2"/>
<path d="M320 289.895C308.954 289.895 300 298.85 300 309.895L300 400L300 434.607C300 476.305 344.77 510.105 400 510.105C455.23 510.105 500 476.305 500 434.607L500 400L500 329.826L500 309.895C500 298.85 491.046 289.895 480 289.895L400 289.895L320 289.895Z" fill="url(#LinearGradient_3)" fill-rule="nonzero" opacity="1" stroke="#000000" stroke-linecap="butt" stroke-linejoin="round" stroke-width="18" vectornator:layerName="Curve 3"/>
</g>
</svg>
